<?xml version="1.0" standalone="no"?>
<!DOCTYPE svg PUBLIC "-//W3C//DTD SVG 20010904//EN"
 "http://www.w3.org/TR/2001/REC-SVG-20010904/DTD/svg10.dtd">
<svg version="1.0" xmlns="http://www.w3.org/2000/svg"
 width="70.000000pt" height="70.000000pt" viewBox="0 0 70.000000 70.000000"
 preserveAspectRatio="xMidYMid meet">
<metadata>
Created by potrace 1.11, written by Peter Selinger 2001-2013
</metadata>
<g transform="translate(0.000000,70.000000) scale(0.100000,-0.100000)"
fill="#000000" stroke="none">
<path d="M116 637 c-11 -8 -18 -29 -20 -63 -3 -62 7 -92 35 -103 l22 -8 -23
-23 c-25 -25 -39 -73 -40 -132 0 -31 -5 -40 -30 -53 -38 -20 -50 -43 -50 -98
0 -44 24 -87 49 -87 6 0 11 -6 11 -13 0 -8 9 -22 20 -32 19 -17 41 -19 253
-20 200 0 232 2 232 15 0 10 -10 15 -27 15 -20 -1 -28 4 -28 17 0 10 5 18 10
18 27 0 50 41 50 90 0 51 -14 75 -62 105 -11 7 -18 31 -22 78 -3 37 -12 80
-20 96 -13 25 -13 30 1 44 21 20 23 128 4 151 -11 13 -40 16 -180 16 -120 0
-172 -4 -185 -13z"/>
<path d="M630 25 c0 -8 7 -15 15 -15 8 0 15 7 15 15 0 8 -7 15 -15 15 -8 0
-15 -7 -15 -15z"/>
</g>
</svg>
